ffmpeg started on 2016-12-02 at 01:02:58
Report written to "Output/x264/results/ffmpeg/old_town_cross_2160p50slower2000k.log"
Command line:
Tools/ffmpeg/ffmpeg -benchmark -y -i Input/y4m/old_town_cross_2160p50.y4m -c:v libx264 -preset slower -b:v 2000k -an Output/x264/encoded/old_town_cross_2160p50slower2000k.mkv
ffmpeg version N-82227-gdb23fde Copyright (c) 2000-2016 the FFmpeg developers
  built with gcc 5.4.0 (Ubuntu 5.4.0-6ubuntu1~16.04.2) 20160609
  configuration: --prefix=/home/jaroslav/ffmpeg_build --pkg-config-flags=--static --extra-cflags=-I/home/jaroslav/ffmpeg_build/include --extra-ldflags=-L/home/jaroslav/ffmpeg_build/lib --bindir=/home/jaroslav/bin --enable-gpl --enable-libass --enable-libfdk-aac --enable-libfreetype --enable-libmp3lame --enable-libopus --enable-libtheora --enable-libvorbis --enable-libvpx --enable-libx264 --enable-libx265 --enable-nvenc --enable-libmfx --enable-libxvid --enable-libgsm --enable-libopencore-amrnb --enable-version3 --enable-nonfree
  libavutil      55. 35.100 / 55. 35.100
  libavcodec     57. 66.101 / 57. 66.101
  libavformat    57. 57.100 / 57. 57.100
  libavdevice    57.  2.100 / 57.  2.100
  libavfilter     6. 66.100 /  6. 66.100
  libswscale      4.  3.100 /  4.  3.100
  libswresample   2.  4.100 /  2.  4.100
  libpostproc    54.  2.100 / 54.  2.100
Input #0, yuv4mpegpipe, from 'Input/y4m/old_town_cross_2160p50.y4m':
  Duration: 00:00:10.00, start: 0.000000, bitrate: 4976642 kb/s
    Stream #0:0: Video: rawvideo (I420 / 0x30323449), yuv420p(progressive), 3840x2160, SAR 1:1 DAR 16:9, 50 fps, 50 tbr, 50 tbn, 50 tbc
[libx264 @ 0x4385120] using SAR=1/1
[libx264 @ 0x4385120] DPB size (8 frames, 259200 mbs) > level limit (5 frames, 184320 mbs)
[libx264 @ 0x4385120] using cpu capabilities: MMX2 SSE2Fast SSSE3 SSE4.2 AVX FMA3 AVX2 LZCNT BMI2
[libx264 @ 0x4385120] profile High, level 5.2
[libx264 @ 0x4385120] 264 - core 148 - H.264/MPEG-4 AVC codec - Copyleft 2003-2016 - http://www.videolan.org/x264.html - options: cabac=1 ref=8 deblock=1:0:0 analyse=0x3:0x133 me=umh subme=9 psy=1 psy_rd=1.00:0.00 mixed_ref=1 me_range=16 chroma_me=1 trellis=2 8x8dct=1 cqm=0 deadzone=21,11 fast_pskip=1 chroma_qp_offset=-2 threads=6 lookahead_threads=1 sliced_threads=0 nr=0 decimate=1 interlaced=0 bluray_compat=0 constrained_intra=0 bframes=3 b_pyramid=2 b_adapt=2 b_bias=0 direct=3 weightb=1 open_gop=0 weightp=2 keyint=250 keyint_min=25 scenecut=40 intra_refresh=0 rc_lookahead=60 rc=abr mbtree=1 bitrate=2000 ratetol=1.0 qcomp=0.60 qpmin=0 qpmax=69 qpstep=4 ip_ratio=1.40 aq=1:1.00
Output #0, matroska, to 'Output/x264/encoded/old_town_cross_2160p50slower2000k.mkv':
  Metadata:
    encoder         : Lavf57.57.100
    Stream #0:0: Video: h264 (libx264) (H264 / 0x34363248), yuv420p, 3840x2160 [SAR 1:1 DAR 16:9], q=-1--1, 2000 kb/s, 50 fps, 1k tbn, 50 tbc
    Metadata:
      encoder         : Lavc57.66.101 libx264
    Side data:
      cpb: bitrate max/min/avg: 0/0/2000000 buffer size: 0 vbv_delay: -1
Stream mapping:
  Stream #0:0 -> #0:0 (rawvideo (native) -> h264 (libx264))
Press [q] to stop, [?] for help
frame=   62 fps=0.0 q=0.0 size=       0kB time=00:00:00.00 bitrate=N/A speed=   0x    frame=   67 fps= 17 q=0.0 size=       0kB time=00:00:00.00 bitrate=N/A speed=   0x    frame=   75 fps= 15 q=51.0 size=       1kB time=00:00:00.04 bitrate= 143.6kbits/s speed=0.00846x    frame=   81 fps= 15 q=52.0 size=       1kB time=00:00:00.16 bitrate=  36.6kbits/s speed=0.03x    frame=   84 fps= 14 q=52.0 size=       1kB time=00:00:00.22 bitrate=  26.6kbits/s speed=0.0359x    frame=   89 fps= 13 q=50.0 size=       1kB time=00:00:00.32 bitrate=  18.3kbits/s speed=0.0471x    frame=   92 fps= 12 q=50.0 size=       1kB time=00:00:00.38 bitrate=  15.5kbits/s speed=0.0515x    frame=   96 fps= 12 q=50.0 size=       1kB time=00:00:00.46 bitrate=  12.8kbits/s speed=0.0578x    frame=  101 fps= 12 q=50.0 size=       1kB time=00:00:00.56 bitrate=  10.5kbits/s speed=0.0651x    frame=  104 fps= 11 q=49.0 size=       1kB time=00:00:00.62 bitrate=   9.5kbits/s speed=0.0681x    frame=  107 fps= 11 q=49.0 size=       1kB time=00:00:00.68 bitrate=   8.6kbits/s speed=0.0702x    frame=  111 fps= 11 q=49.0 size=       1kB time=00:00:00.76 bitrate=   7.7kbits/s speed=0.0739x    frame=  115 fps= 11 q=49.0 size=       1kB time=00:00:00.84 bitrate=   7.0kbits/s speed=0.0774x    frame=  119 fps= 10 q=49.0 size=       1kB time=00:00:00.92 bitrate=   6.4kbits/s speed=0.0804x    frame=  122 fps= 10 q=49.0 size=       1kB time=00:00:00.98 bitrate=   6.0kbits/s speed=0.0815x    frame=  126 fps=9.9 q=49.0 size=       1kB time=00:00:01.06 bitrate=   5.5kbits/s speed=0.0836x    frame=  131 fps=9.9 q=49.0 size=       1kB time=00:00:01.16 bitrate=   5.1kbits/s speed=0.0878x    frame=  134 fps=9.7 q=49.0 size=       1kB time=00:00:01.22 bitrate=   4.8kbits/s speed=0.0881x    frame=  138 fps=9.6 q=49.0 size=       1kB time=00:00:01.30 bitrate=   4.5kbits/s speed=0.0902x    frame=  142 fps=9.3 q=48.0 size=       1kB time=00:00:01.38 bitrate=   4.3kbits/s speed=0.0908x    frame=  146 fps=9.2 q=48.0 size=       1kB time=00:00:01.46 bitrate=   4.0kbits/s speed=0.092x    frame=  150 fps=9.1 q=48.0 size=       1kB time=00:00:01.54 bitrate=   3.8kbits/s speed=0.0939x    frame=  154 fps=9.0 q=48.0 size=       1kB time=00:00:01.62 bitrate=   3.6kbits/s speed=0.0946x    frame=  159 fps=8.9 q=48.0 size=       1kB time=00:00:01.72 bitrate=   3.4kbits/s speed=0.0968x    frame=  162 fps=8.8 q=48.0 size=       1kB time=00:00:01.78 bitrate=   3.3kbits/s speed=0.0969x    frame=  166 fps=8.8 q=48.0 size=       1kB time=00:00:01.86 bitrate=   3.2kbits/s speed=0.0982x    frame=  169 fps=8.7 q=48.0 size=       1kB time=00:00:01.92 bitrate=   3.1kbits/s speed=0.0985x    frame=  173 fps=8.6 q=48.0 size=       1kB time=00:00:02.00 bitrate=   2.9kbits/s speed=0.0998x    frame=  175 fps=8.5 q=48.0 size=       1kB time=00:00:02.04 bitrate=   2.9kbits/s speed=0.0991x    frame=  180 fps=8.5 q=48.0 size=       1kB time=00:00:02.14 bitrate=   2.8kbits/s speed=0.101x    frame=  184 fps=8.4 q=48.0 size=       1kB time=00:00:02.22 bitrate=   2.7kbits/s speed=0.101x    frame=  188 fps=8.4 q=48.0 size=       1kB time=00:00:02.30 bitrate=   2.6kbits/s speed=0.102x    frame=  192 fps=8.3 q=48.0 size=       1kB time=00:00:02.38 bitrate=   2.5kbits/s speed=0.103x    frame=  196 fps=8.2 q=48.0 size=       1kB time=00:00:02.46 bitrate=   2.4kbits/s speed=0.104x    frame=  200 fps=8.2 q=48.0 size=       1kB time=00:00:02.54 bitrate=   2.3kbits/s speed=0.104x    frame=  203 fps=8.1 q=48.0 size=       1kB time=00:00:02.60 bitrate=   2.3kbits/s speed=0.104x    frame=  207 fps=8.1 q=48.0 size=       1kB time=00:00:02.68 bitrate=   2.2kbits/s speed=0.105x    frame=  211 fps=8.0 q=48.0 size=       1kB time=00:00:02.76 bitrate=   2.1kbits/s speed=0.105x    frame=  215 fps=8.0 q=48.0 size=       1kB time=00:00:02.84 bitrate=   2.1kbits/s speed=0.106x    frame=  219 fps=7.9 q=48.0 size=       1kB time=00:00:02.92 bitrate=   2.0kbits/s speed=0.106x    frame=  224 fps=7.9 q=48.0 size=       1kB time=00:00:03.02 bitrate=   1.9kbits/s speed=0.107x    frame=  227 fps=7.9 q=48.0 size=       1kB time=00:00:03.08 bitrate=   1.9kbits/s speed=0.107x    frame=  231 fps=7.8 q=48.0 size=       1kB time=00:00:03.16 bitrate=   1.9kbits/s speed=0.107x    frame=  236 fps=7.8 q=48.0 size=       1kB time=00:00:03.26 bitrate=   1.8kbits/s speed=0.108x    frame=  239 fps=7.8 q=48.0 size=       1kB time=00:00:03.32 bitrate=   1.8kbits/s speed=0.108x    frame=  243 fps=7.8 q=48.0 size=       1kB time=00:00:03.40 bitrate=   1.7kbits/s speed=0.109x    frame=  247 fps=7.7 q=48.0 size=       1kB time=00:00:03.48 bitrate=   1.7kbits/s speed=0.109x    frame=  250 fps=7.7 q=48.0 size=       1kB time=00:00:03.54 bitrate=   1.7kbits/s speed=0.109x    frame=  254 fps=7.7 q=48.0 size=       1kB time=00:00:03.62 bitrate=   1.6kbits/s speed=0.11x    frame=  258 fps=7.7 q=48.0 size=       1kB time=00:00:03.70 bitrate=   1.6kbits/s speed=0.11x    frame=  262 fps=7.6 q=48.0 size=       1kB time=00:00:03.78 bitrate=   1.6kbits/s speed=0.11x    frame=  268 fps=7.6 q=48.0 size=       1kB time=00:00:03.90 bitrate=   1.5kbits/s speed=0.11x    frame=  271 fps=7.6 q=48.0 size=       1kB time=00:00:03.96 bitrate=   1.5kbits/s speed=0.111x    frame=  275 fps=7.5 q=48.0 size=       1kB time=00:00:04.04 bitrate=   1.5kbits/s speed=0.111x    frame=  279 fps=7.5 q=48.0 size=       1kB time=00:00:04.12 bitrate=   1.4kbits/s speed=0.111x    frame=  285 fps=7.5 q=48.0 size=       1kB time=00:00:04.24 bitrate=   1.4kbits/s speed=0.111x    frame=  291 fps=7.4 q=48.0 size=       1kB time=00:00:04.36 bitrate=   1.4kbits/s speed=0.112x    frame=  297 fps=7.4 q=48.0 size=       1kB time=00:00:04.48 bitrate=   1.3kbits/s speed=0.112x    frame=  301 fps=7.4 q=48.0 size=       1kB time=00:00:04.56 bitrate=   1.3kbits/s speed=0.113x    frame=  305 fps=7.4 q=48.0 size=       1kB time=00:00:04.64 bitrate=   1.3kbits/s speed=0.113x    frame=  309 fps=7.4 q=48.0 size=       1kB time=00:00:04.72 bitrate=   1.2kbits/s speed=0.113x    frame=  312 fps=7.3 q=48.0 size=       1kB time=00:00:04.78 bitrate=   1.2kbits/s speed=0.113x    frame=  318 fps=7.3 q=48.0 size=       1kB time=00:00:04.90 bitrate=   1.2kbits/s speed=0.113x    frame=  325 fps=7.4 q=48.0 size=    1167kB time=00:00:05.04 bitrate=1896.1kbits/s speed=0.115x    frame=  330 fps=7.4 q=48.0 size=    1167kB time=00:00:05.14 bitrate=1859.3kbits/s speed=0.116x    frame=  334 fps=7.4 q=48.0 size=    1167kB time=00:00:05.22 bitrate=1830.8kbits/s speed=0.116x    frame=  335 fps=7.4 q=48.0 size=    1167kB time=00:00:05.24 bitrate=1823.8kbits/s speed=0.115x    frame=  341 fps=7.4 q=48.0 size=    1167kB time=00:00:05.36 bitrate=1783.0kbits/s speed=0.116x    frame=  343 fps=7.3 q=48.0 size=    1167kB time=00:00:05.40 bitrate=1769.8kbits/s speed=0.115x    frame=  348 fps=7.4 q=48.0 size=    1167kB time=00:00:05.50 bitrate=1737.6kbits/s speed=0.116x    frame=  350 fps=7.3 q=48.0 size=    1167kB time=00:00:05.54 bitrate=1725.0kbits/s speed=0.116x    frame=  354 fps=7.3 q=48.0 size=    1167kB time=00:00:05.62 bitrate=1700.5kbits/s speed=0.116x    frame=  360 fps=7.3 q=48.0 size=    1167kB time=00:00:05.74 bitrate=1665.0kbits/s speed=0.116x    frame=  364 fps=7.3 q=48.0 size=    1167kB time=00:00:05.82 bitrate=1642.1kbits/s speed=0.116x    frame=  368 fps=7.3 q=48.0 size=    1167kB time=00:00:05.90 bitrate=1619.8kbits/s speed=0.117x    frame=  372 fps=7.2 q=48.0 size=    1167kB time=00:00:05.98 bitrate=1598.1kbits/s speed=0.116x    frame=  376 fps=7.2 q=48.0 size=    1167kB time=00:00:06.06 bitrate=1577.0kbits/s speed=0.117x    frame=  379 fps=7.2 q=48.0 size=    1167kB time=00:00:06.12 bitrate=1561.6kbits/s speed=0.117x    frame=  384 fps=7.2 q=48.0 size=    1167kB time=00:00:06.22 bitrate=1536.5kbits/s speed=0.117x    frame=  387 fps=7.2 q=48.0 size=    1167kB time=00:00:06.28 bitrate=1521.8kbits/s speed=0.117x    frame=  391 fps=7.2 q=48.0 size=    1167kB time=00:00:06.36 bitrate=1502.7kbits/s speed=0.117x    frame=  395 fps=7.2 q=48.0 size=    1167kB time=00:00:06.44 bitrate=1484.0kbits/s speed=0.117x    frame=  400 fps=7.2 q=48.0 size=    1167kB time=00:00:06.54 bitrate=1461.3kbits/s speed=0.117x    frame=  403 fps=7.1 q=48.0 size=    1167kB time=00:00:06.60 bitrate=1448.0kbits/s speed=0.117x    frame=  407 fps=7.1 q=48.0 size=    1167kB time=00:00:06.68 bitrate=1430.7kbits/s speed=0.117x    frame=  412 fps=7.1 q=48.0 size=    1167kB time=00:00:06.78 bitrate=1409.6kbits/s speed=0.118x    frame=  414 fps=7.1 q=48.0 size=    1167kB time=00:00:06.82 bitrate=1401.3kbits/s speed=0.117x    frame=  420 fps=7.1 q=48.0 size=    1167kB time=00:00:06.94 bitrate=1377.1kbits/s speed=0.117x    frame=  426 fps=7.1 q=48.0 size=    1167kB time=00:00:07.06 bitrate=1353.7kbits/s speed=0.117x    frame=  431 fps=7.1 q=48.0 size=    1167kB time=00:00:07.16 bitrate=1334.8kbits/s speed=0.118x    frame=  434 fps=7.0 q=48.0 size=    1167kB time=00:00:07.22 bitrate=1323.7kbits/s speed=0.117x    frame=  440 fps=7.1 q=48.0 size=    1167kB time=00:00:07.34 bitrate=1302.1kbits/s speed=0.118x    frame=  442 fps=7.0 q=48.0 size=    1167kB time=00:00:07.38 bitrate=1295.0kbits/s speed=0.117x    frame=  446 fps=7.0 q=48.0 size=    1167kB time=00:00:07.46 bitrate=1281.1kbits/s speed=0.118x    frame=  450 fps=7.0 q=48.0 size=    1167kB time=00:00:07.54 bitrate=1267.5kbits/s speed=0.118x    frame=  453 fps=7.0 q=48.0 size=    1167kB time=00:00:07.60 bitrate=1257.5kbits/s speed=0.117x    frame=  458 fps=7.0 q=48.0 size=    1167kB time=00:00:07.70 bitrate=1241.2kbits/s speed=0.118x    frame=  463 fps=7.0 q=48.0 size=    1167kB time=00:00:07.80 bitrate=1225.3kbits/s speed=0.118x    frame=  467 fps=7.0 q=48.0 size=    1167kB time=00:00:07.88 bitrate=1212.9kbits/s speed=0.118x    frame=  471 fps=7.0 q=48.0 size=    1167kB time=00:00:07.96 bitrate=1200.7kbits/s speed=0.118x    frame=  476 fps=7.0 q=48.0 size=    1167kB time=00:00:08.06 bitrate=1185.8kbits/s speed=0.118x    frame=  480 fps=7.0 q=48.0 size=    1167kB time=00:00:08.14 bitrate=1174.1kbits/s speed=0.118x    frame=  483 fps=6.9 q=48.0 size=    1167kB time=00:00:08.20 bitrate=1165.5kbits/s speed=0.118x    frame=  489 fps=6.9 q=48.0 size=    1167kB time=00:00:08.32 bitrate=1148.7kbits/s speed=0.118x    frame=  495 fps=6.9 q=49.0 size=    1167kB time=00:00:08.44 bitrate=1132.4kbits/s speed=0.118x    frame=  498 fps=6.9 q=49.0 size=    1167kB time=00:00:08.50 bitrate=1124.4kbits/s speed=0.118x    frame=  500 fps=6.1 q=-1.0 Lsize=    2498kB time=00:00:09.94 bitrate=2058.9kbits/s speed=0.121x    
video:2494kB audio:0kB subtitle:0kB other streams:0kB global headers:0kB muxing overhead: 0.170942%
bench: utime=311.648s
bench: maxrss=2603476kB
[libx264 @ 0x4385120] frame I:3     Avg QP:44.06  size: 53376
[libx264 @ 0x4385120] frame P:138   Avg QP:46.54  size:  7065
[libx264 @ 0x4385120] frame B:359   Avg QP:47.66  size:  3951
[libx264 @ 0x4385120] consecutive B-frames:  1.0%  2.0% 23.4% 73.6%
[libx264 @ 0x4385120] mb I  I16..4: 30.4% 69.1%  0.5%
[libx264 @ 0x4385120] mb P  I16..4:  0.2%  0.2%  0.0%  P16..4: 10.1%  0.1%  2.2%  0.0%  0.0%    skip:87.2%
[libx264 @ 0x4385120] mb B  I16..4:  0.0%  0.0%  0.0%  B16..8: 20.4%  0.0%  0.0%  direct: 0.0%  skip:79.6%  L0:38.1% L1:61.9% BI: 0.0%
[libx264 @ 0x4385120] final ratefactor: 40.63
[libx264 @ 0x4385120] 8x8 transform intra:66.8% inter:96.0%
[libx264 @ 0x4385120] direct mvs  spatial:99.2% temporal:0.8%
[libx264 @ 0x4385120] coded y,uvDC,uvAC intra: 11.5% 16.4% 1.2% inter: 0.1% 0.3% 0.0%
[libx264 @ 0x4385120] i16 v,h,dc,p: 26% 44%  3% 27%
[libx264 @ 0x4385120] i8 v,h,dc,ddl,ddr,vr,hd,vl,hu: 12%  2% 50%  5%  8%  4%  8%  4%  7%
[libx264 @ 0x4385120] i4 v,h,dc,ddl,ddr,vr,hd,vl,hu:  4%  4%  2% 12% 16% 11% 20%  9% 22%
[libx264 @ 0x4385120] i8c dc,h,v,p: 32% 60%  6%  2%
[libx264 @ 0x4385120] Weighted P-Frames: Y:0.7% UV:0.0%
[libx264 @ 0x4385120] ref P L0: 79.9%  1.8% 10.5%  2.0%  1.9%  1.7%  1.5%  0.7%  0.0%
[libx264 @ 0x4385120] ref B L0: 97.3%  1.3%  0.8%  0.3%  0.2%  0.1%  0.0%
[libx264 @ 0x4385120] ref B L1: 99.3%  0.7%
[libx264 @ 0x4385120] kb/s:2042.72
